# Blender v2.79 (sub 0) OBJ File: ''
# www.blender.org
mtllib ground.mtl
o Cube_Cube.004
v 3.000000 0.000001 -5.000000
v 3.000000 -0.000000 3.000000
v 3.000000 0.500000 3.000000
v 3.000000 0.500000 -5.000000
v -3.000000 -0.000000 3.000000
v -3.000000 -0.000001 5.000000
v 3.000000 -0.000001 5.000000
v -3.000000 0.000001 -5.000000
v 3.000000 0.499998 5.000000
v 5.000000 0.499998 5.000000
v 5.000000 0.499999 3.000000
v -5.000000 0.500001 3.000000
v -5.000000 0.500000 5.000000
v -3.000000 0.499999 5.000000
v -3.000000 0.500000 3.000000
v -5.000000 0.500002 -5.000000
v -3.000000 0.500001 -5.000000
v 5.000000 0.500000 -5.000000
v -5.000000 0.000000 5.000000
v 5.000000 -0.000002 5.000000
v 5.000000 -0.000000 -5.000000
v -5.000000 0.000002 -5.000000
v 2.407384 -6.957670 -3.927648
v -2.407384 -6.957671 4.096967
v 2.407384 -6.957671 4.096967
v -2.407384 -6.957670 -3.927648
v 4.012307 -6.556441 4.096967
v 4.012307 -6.556441 2.492044
v -4.012307 -6.556439 2.492044
v -4.012307 -6.556439 4.096967
v -4.012307 -6.556438 -3.927648
v 4.012307 -6.556440 -3.927648
v -4.012307 -6.957670 4.096967
v 4.012307 -6.957672 4.096967
v 4.012307 -6.957671 -3.927648
v -4.012307 -6.957669 -3.927648
vt 0.954056 0.000192
vt 0.954056 0.726068
vt 0.908689 0.726068
vt 0.908689 0.000192
vt 0.544599 0.726068
vt 0.544599 0.907537
vt 0.000192 0.907537
vt 0.000192 0.726068
vt 0.544599 0.000192
vt 0.000192 0.000192
vt 0.726452 0.726068
vt 0.726452 0.907537
vt 0.544983 0.907537
vt 0.544983 0.726068
vt 0.908305 0.726068
vt 0.908305 0.907537
vt 0.726836 0.907537
vt 0.726836 0.726068
vt 0.908305 0.000192
vt 0.726836 0.000192
vt 0.726452 0.000192
vt 0.544983 0.000192
vt 0.954441 0.907537
vt 0.954441 0.726069
vt 0.999808 0.726069
vt 0.999808 0.907537
vt 0.954057 0.907537
vt 0.908689 0.907537
vt 0.954441 0.000192
vt 0.999808 0.000192
vt 0.000000 0.000000
vt 0.000000 0.000000
vt 0.000000 0.000000
vt 0.000000 0.000000
vt 0.908305 0.000192
vt 0.908305 0.726068
vt 0.544599 0.907537
vt 0.000192 0.907537
vt 0.000000 0.000000
vt 0.954056 0.000192
vt 0.544983 0.907537
vt 0.544983 0.726068
vt 0.544983 0.000192
vt 0.000192 0.000192
vt 0.544599 0.000192
vt 0.000000 0.000000
vt 0.954441 0.907537
vt 0.954057 0.907537
vt 0.000000 0.000000
vt 0.954441 0.000192
vt 0.000000 0.000000
vt 0.908305 0.907537
vn -0.5774 0.5774 -0.5774
vn -0.7071 0.7071 0.0000
vn 0.7071 0.7071 0.0000
vn 0.5774 0.5774 0.5774
vn -0.5774 0.5774 0.5774
vn 0.5774 0.5774 -0.5774
vn 0.0000 0.7071 0.7071
vn 0.0000 1.0000 0.0000
vn 0.0000 0.7071 -0.7071
vn 0.0000 0.0000 1.0000
vn 0.0000 0.0000 -1.0000
vn -0.9903 -0.1386 -0.0000
vn -0.0000 -0.1287 0.9917
vn -0.0000 -0.1523 -0.9883
vn 0.9903 -0.1386 -0.0000
usemtl None.005
s 1
f 1/1/1 2/2/2 3/3/2 4/4/1
f 5/5/3 6/6/4 7/7/5 2/8/2
f 8/9/6 5/5/3 2/8/2 1/10/1
f 3/11/2 9/12/5 10/13/7 11/14/8
f 12/15/8 13/16/7 14/17/4 15/18/3
f 16/19/9 12/15/8 15/18/3 17/20/6
f 4/21/1 3/11/2 11/14/8 18/22/9
f 6/23/4 5/24/3 15/25/3 14/26/4
f 2/2/2 7/27/5 9/28/5 3/3/2
f 5/24/3 8/29/6 17/30/6 15/25/3
f 19/31/10 6/23/4 14/26/4 13/16/7
f 7/27/5 20/32/10 10/13/7 9/28/5
f 18/22/9 21/33/11 1/1/1 4/21/1
f 16/19/9 17/20/6 8/29/6 22/34/11
f 12/15/12 16/19/12 31/35/12 29/36/12
f 7/7/13 6/6/13 24/37/13 25/38/13
f 1/1/14 21/33/14 35/39/14 23/40/14
f 11/14/15 10/13/15 27/41/15 28/42/15
f 18/22/15 11/14/15 28/42/15 32/43/15
f 8/9/14 1/10/14 23/44/14 26/45/14
f 6/23/13 19/31/13 33/46/13 24/47/13
f 20/32/13 7/27/13 25/48/13 34/49/13
f 22/34/14 8/29/14 26/50/14 36/51/14
f 13/16/12 12/15/12 29/36/12 30/52/12
