# Blender v2.79 (sub 0) OBJ File: ''
# www.blender.org
mtllib ground_hole.mtl
o Cube_Cube.004
v 3.000000 0.000001 -5.000000
v 3.000000 -0.000000 3.000000
v 3.000000 0.500000 3.000000
v 3.000000 0.500000 -5.000000
v -3.000000 -0.000000 3.000000
v -3.000000 -0.000001 5.000000
v 3.000000 -0.000001 5.000000
v -3.000000 0.000001 -5.000000
v 3.000000 0.499998 5.000000
v 5.000000 0.499998 5.000000
v 5.000000 0.499999 3.000000
v -5.000000 0.500001 3.000000
v -5.000000 0.500000 5.000000
v -3.000000 0.499999 5.000000
v -3.000000 0.500000 3.000000
v -5.000000 0.500002 -5.000000
v -3.000000 0.500001 -5.000000
v 5.000000 0.500000 -5.000000
v -5.000000 0.000000 5.000000
v 5.000000 -0.000002 5.000000
v 5.000000 -0.000000 -5.000000
v -5.000000 0.000002 -5.000000
v 3.000000 -0.999999 -5.000000
v -3.000000 -1.000001 5.000000
v 3.000000 -1.000001 5.000000
v -3.000000 -0.999999 -5.000000
v -5.000000 -1.000000 5.000000
v 5.000000 -1.000002 5.000000
v 5.000000 -1.000000 -5.000000
v -5.000000 -0.999998 -5.000000
v -0.499974 -0.000001 5.000000
v -0.499974 -0.000000 3.000000
v -0.499974 0.000001 -5.000000
v -0.499974 -1.000001 5.000000
v -0.499974 -0.999999 -5.000000
v -3.000000 0.000000 -0.755160
v 3.000000 0.500000 -0.755160
v -3.000000 0.500000 -0.755160
v -5.000000 0.500001 -0.755160
v 3.000000 0.000000 -0.755160
v 5.000000 0.499999 -0.755160
v -0.499974 0.000000 -0.755160
v 1.250013 0.000001 -5.000000
v 1.250013 -0.999999 -5.000000
v 1.250013 0.000000 -1.654014
v 1.250013 -0.000001 5.000000
v 1.250013 -1.000001 5.000000
v 1.250013 -0.000000 3.688330
v -1.378079 -0.775649 -0.008950
v -3.000000 -0.000000 1.122420
v -3.000000 0.500000 1.122420
v -5.000000 0.500001 1.122420
v -1.378079 0.224350 1.113470
vt 0.954056 0.363130
vt 0.954056 0.726068
vt 0.908689 0.726068
vt 0.908689 0.363130
vt 0.136294 0.726068
vt 0.136294 0.907537
vt 0.000192 0.907537
vt 0.000192 0.726068
vt 0.136294 0.000192
vt 0.136294 0.363130
vt 0.272395 0.363130
vt 0.272395 0.000192
vt 0.726452 0.726068
vt 0.726452 0.907537
vt 0.544983 0.907537
vt 0.544983 0.726068
vt 0.908305 0.726068
vt 0.908305 0.907537
vt 0.726836 0.907537
vt 0.726836 0.726068
vt 0.908305 0.544599
vt 0.726836 0.544599
vt 0.726452 0.363130
vt 0.544983 0.363130
vt 0.954441 0.907537
vt 0.954441 0.726069
vt 0.999808 0.726069
vt 0.999808 0.907537
vt 0.954057 0.907537
vt 0.908689 0.907537
vt 0.954441 0.363130
vt 0.954441 0.000192
vt 0.999808 0.000192
vt 0.999808 0.363130
vt 0.000000 0.000000
vt 0.000000 0.000000
vt 0.544983 0.000192
vt 0.000000 0.000000
vt 0.954056 0.000192
vt 0.726452 0.000192
vt 0.908305 0.000192
vt 0.726836 0.000192
vt 0.000000 0.000000
vt 0.908305 0.363130
vt 0.000000 0.000000
vt 0.954441 0.907537
vt 0.000000 0.000000
vt 0.954441 0.000192
vt 0.954057 0.907537
vt 0.000000 0.000000
vt 0.000000 0.000000
vt 0.272395 0.907537
vt 0.544599 0.907537
vt 0.544599 0.907537
vt 0.272395 0.907537
vt 0.136294 0.000192
vt 0.000192 0.000192
vt 0.000192 0.000192
vt 0.954056 0.000192
vt 0.477316 0.000192
vt 0.715783 0.453864
vt 0.954249 0.907537
vt 0.544599 0.000192
vt 0.272395 0.000192
vt 0.544599 0.000192
vt 0.136294 0.907537
vt 0.544599 0.544599
vt 0.544599 0.726068
vt 0.272395 0.726068
vt 0.272395 0.544599
vt 0.544599 0.363130
vt 0.954441 0.544600
vt 0.999808 0.544600
vt 0.726836 0.363130
vt 0.000192 0.363130
vt 0.908689 0.000192
vt 0.613226 0.907537
vt 0.272395 0.453864
vt 0.000192 0.907537
vn -0.8442 -0.5311 0.0730
vn -0.8429 -0.5039 -0.1889
vn -0.7071 0.7071 0.0000
vn 0.0000 0.3480 -0.9375
vn 0.0000 1.0000 0.0000
vn -0.5774 0.5774 0.5774
vn 0.0000 -0.9670 0.2548
vn -0.0000 0.1767 0.9843
vn 0.8346 0.4331 0.3404
vn 0.1061 -0.9835 0.1468
vn 0.0000 0.7071 0.7071
vn 0.5774 0.5774 0.5774
vn 0.7071 0.7071 0.0000
vn 0.6979 0.7158 0.0258
vn 0.6978 0.7158 -0.0260
vn 0.5774 0.5774 -0.5774
vn 0.0000 0.0000 1.0000
vn 0.0000 0.7071 -0.7071
vn 0.0000 0.0000 -1.0000
vn -0.5774 0.5774 -0.5774
vn -0.8944 0.0000 -0.4472
vn -0.8944 0.0000 0.4472
vn -1.0000 0.0000 0.0000
vn 0.8944 0.0000 0.4472
vn 0.8944 0.0000 -0.4472
vn 1.0000 0.0000 0.0000
vn -0.5666 -0.5825 0.5827
vn -0.5666 -0.5825 -0.5827
vn 0.5281 -0.6650 0.5281
vn 0.5559 -0.6340 -0.5376
vn 0.0276 -0.9996 -0.0000
vn 0.5167 -0.8532 0.0715
vn 0.2105 -0.9281 -0.3072
vn 0.6886 0.7251 0.0000
vn 0.6705 0.6709 -0.3168
vn 0.6009 0.7936 -0.0953
vn -0.0327 -0.9697 0.2419
vn -0.0507 -0.8748 -0.4818
vn 0.0000 -0.8560 -0.5170
usemtl None.005
s 1
f 40/1/1 2/2/2 3/3/3 37/4/3
f 48/5/4 46/6/5 7/7/6 2/8/2
f 44/9/7 45/10/8 42/11/9 35/12/10
f 3/13/3 9/14/6 10/15/11 11/16/5
f 12/17/5 13/18/11 14/19/12 15/20/13
f 52/21/5 12/17/5 15/20/13 51/22/13
f 37/23/3 3/13/3 11/16/5 41/24/5
f 6/25/12 5/26/14 15/27/13 14/28/12
f 2/2/2 7/29/6 9/30/6 3/3/3
f 36/31/15 8/32/16 17/33/16 38/34/13
f 19/35/17 6/25/12 14/28/12 13/18/11
f 7/29/6 20/36/17 10/15/11 9/30/6
f 18/37/18 21/38/19 1/39/20 4/40/20
f 16/41/18 17/42/16 8/32/16 22/43/19
f 22/43/21 19/35/22 13/18/23 12/17/23 52/21/23 39/44/23 16/41/23
f 20/36/24 21/38/25 18/37/26 41/24/26 11/16/26 10/15/26
f 6/25/17 19/35/22 27/45/27 24/46/17
f 19/35/22 22/43/21 30/47/28 27/45/27
f 22/43/21 8/32/19 26/48/19 30/47/28
f 20/36/24 7/29/17 25/49/17 28/50/29
f 21/38/25 20/36/24 28/50/29 29/51/30
f 31/52/17 6/53/17 24/54/17 34/55/17
f 43/56/19 1/57/19 23/58/19 44/9/19
f 1/39/19 21/38/25 29/51/30 23/59/19
f 40/1/1 29/51/30 28/50/29 2/2/2
f 24/46/31 27/45/27 30/47/28 26/48/31 35/60/10 49/61/32 34/62/33
f 8/63/19 33/64/19 35/12/19 26/65/19
f 46/6/17 31/52/17 34/55/17 47/66/17
f 50/67/34 5/68/14 32/69/35 53/70/36
f 5/68/14 6/53/12 31/52/5 32/69/35
f 8/63/16 36/71/15 42/11/9 33/64/5
f 50/72/34 36/31/15 38/34/13 51/73/13
f 4/40/20 37/23/3 41/24/5 18/37/18
f 16/41/18 39/44/5 38/74/13 17/42/16
f 43/56/5 45/10/8 40/75/1 1/57/20
f 1/39/20 40/1/1 37/4/3 4/76/20
f 29/51/30 40/1/1 23/58/37
f 28/50/29 25/49/38 2/2/2
f 47/77/39 48/5/4 2/8/2 25/49/38
f 49/78/32 53/70/36 32/69/35 34/55/33
f 33/64/5 42/11/9 45/10/8 43/56/5
f 33/64/19 43/56/19 44/9/19 35/12/19
f 23/58/37 40/75/1 45/10/8 44/9/7
f 34/55/33 32/69/35 48/5/4 47/77/39
f 7/7/17 46/6/17 47/66/17 25/79/17
f 32/69/35 31/52/5 46/6/5 48/5/4
f 35/12/10 42/11/9 53/70/36 49/78/32
f 5/26/14 50/72/34 51/73/13 15/27/13
f 36/71/15 50/67/34 53/70/36 42/11/9
f 39/44/5 52/21/5 51/22/13 38/74/13
