# Blender v2.79 (sub 0) OBJ File: ''
# www.blender.org
mtllib ground_right.mtl
o Cube_Cube.002
v -5.000000 0.000001 3.000000
v -5.000000 0.000000 5.000000
v -5.000000 0.500000 5.000000
v -5.000000 0.500001 3.000000
v 5.000000 -0.000001 3.000000
v 5.000000 -0.000000 -5.000000
v 5.000000 0.500000 -5.000000
v 5.000000 0.499999 3.000000
v 3.000000 -0.000001 5.000000
v 5.000000 -0.000002 5.000000
v 5.000000 0.499998 5.000000
v 3.000000 0.499999 5.000000
v -3.000000 -0.000001 5.000000
v -3.000000 0.499999 5.000000
v 3.000000 0.000001 -5.000000
v 3.000000 0.500001 -5.000000
v 3.000000 -0.000000 3.000000
v 3.000000 0.500000 3.000000
v -3.000000 0.000001 -5.000000
v -3.000000 -0.000000 3.000000
v -5.000000 0.000002 -5.000000
v -3.000000 0.500000 3.000000
v -3.594482 -8.000000 1.325351
v -3.594482 -8.000000 2.763144
v 3.594482 -8.000002 1.325351
v 3.594482 -8.000001 -4.425821
v 2.156690 -8.000001 2.763144
v 3.594482 -8.000002 2.763144
v -2.156690 -8.000001 2.763144
v 2.156690 -8.000000 -4.425821
v -2.156690 -8.000000 -4.425821
v -3.594482 -7.999999 -4.425821
vt 0.589447 0.999895
vt 0.589447 0.916580
vt 0.610276 0.916580
vt 0.610276 0.999895
vt 0.589447 0.416686
vt 0.589447 0.083421
vt 0.610276 0.083421
vt 0.610276 0.416686
vt 0.589447 0.583318
vt 0.589447 0.500002
vt 0.610276 0.500002
vt 0.610276 0.583318
vt 0.589447 0.833265
vt 0.610276 0.833265
vt 0.589447 0.000105
vt 0.610276 0.000105
vt 0.589447 0.500002
vt 0.589447 0.416686
vt 0.589447 0.833265
vt 0.589447 0.583318
vt 0.589447 0.083421
vt 0.589447 0.000105
vt 0.589447 0.916580
vt 0.589447 0.999895
vt 0.631315 0.000105
vt 0.631315 0.333367
vt 0.610487 0.333368
vt 0.610487 0.000105
vt 0.000105 0.437110
vt 0.333368 0.437110
vt 0.333368 0.687057
vt 0.000105 0.687057
vt 0.000105 0.353794
vt 0.333368 0.353794
vt 0.294671 0.117931
vt 0.235758 0.059018
vt 0.294671 0.000105
vt 0.353584 0.059018
vt 0.059018 0.353584
vt 0.000105 0.294671
vt 0.059018 0.235758
vt 0.117931 0.294671
vt 0.530323 0.353584
vt 0.589236 0.294671
vt 0.631316 0.583315
vt 0.631316 0.666632
vt 0.610487 0.666632
vt 0.610487 0.583315
vt 0.000105 0.353794
vt 0.333368 0.353794
vt 0.000105 0.437110
vt 0.000105 0.687057
vn -1.0000 0.0000 0.0000
vn 1.0000 0.0000 0.0000
vn -0.0000 0.0000 1.0000
vn 0.0000 0.0000 -1.0000
vn 0.9849 -0.1730 0.0000
vn 0.0000 -0.2693 0.9631
vn 0.0000 -0.0716 -0.9974
vn -0.9849 -0.1730 -0.0000
vn -0.7071 0.7071 0.0000
vn -0.5774 0.5774 -0.5774
vn -0.3015 0.9045 -0.3015
vn 0.0000 1.0000 0.0000
vn 0.0000 0.7071 -0.7071
vn -0.7163 -0.1743 -0.6757
vn -0.6708 -0.1697 -0.7219
usemtl None.003
s off
f 1/1/1 2/2/1 3/3/1 4/4/1
f 5/5/2 6/6/2 7/7/2 8/8/2
f 9/9/3 10/10/3 11/11/3 12/12/3
f 2/2/3 13/13/3 14/14/3 3/3/3
f 13/13/3 9/9/3 12/12/3 14/14/3
f 6/6/4 15/15/4 16/16/4 7/7/4
f 10/10/2 5/5/2 8/8/2 11/11/2
f 5/5/5 10/10/5 28/17/5 25/18/5
f 9/9/6 13/13/6 29/19/6 27/20/6
f 15/15/7 6/6/7 26/21/7 30/22/7
f 6/6/5 5/5/5 25/18/5 26/21/5
f 13/13/6 2/2/6 24/23/6 29/19/6
f 2/2/8 1/1/8 23/24/8 24/23/8
f 10/10/6 9/9/6 27/20/6 28/17/6
s 1
f 15/25/9 17/26/10 18/27/11 16/28/9
f 19/29/12 20/30/13 17/31/10 15/32/9
f 21/33/12 1/34/13 20/30/13 19/29/12
f 18/35/11 12/36/12 11/37/12 8/38/12
f 4/39/13 3/40/12 14/41/12 22/42/13
f 22/42/13 14/41/12 12/36/12 18/35/11
f 16/43/9 18/35/11 8/38/12 7/44/12
f 20/45/13 1/46/13 4/47/13 22/48/13
f 17/26/10 20/45/13 22/48/13 18/27/11
f 1/34/8 21/33/14 32/49/15 23/50/8
f 21/33/14 19/29/7 31/51/7 32/49/15
f 19/29/7 15/32/7 30/52/7 31/51/7
