# Blender v2.79 (sub 0) OBJ File: ''
# www.blender.org
mtllib head.mtl
o Cube_Cube.001
v 0.042271 0.049085 0.073461
v 0.023203 0.083699 0.058296
v 0.017189 0.107025 0.030969
v 0.079954 0.045788 0.049151
v 0.053423 0.081055 0.038800
v 0.033960 0.105557 0.020150
v 0.019201 0.073748 -0.029877
v 0.034599 0.051035 -0.053837
v 0.043144 0.018214 -0.067133
v 0.043144 -0.018214 -0.055361
v 0.034599 -0.051035 -0.053837
v 0.019201 -0.073748 -0.029877
v -0.000000 0.081854 -0.000000
v 0.032306 0.073748 -0.014753
v 0.058213 0.051035 -0.026585
v 0.072590 0.018214 -0.033151
v 0.072590 -0.018214 -0.033151
v 0.058213 -0.051035 -0.026585
v 0.032306 -0.073748 -0.014753
v 0.035153 0.073748 0.005054
v 0.063344 0.051035 0.009108
v 0.078989 0.018214 0.011357
v 0.078989 -0.018214 0.011357
v 0.063344 -0.051035 0.009108
v 0.035153 -0.073748 0.005054
v 0.098562 0.044160 0.008249
v 0.068345 0.079750 0.006000
v 0.026840 0.073748 0.023257
v 0.048365 0.051035 0.041908
v 0.060310 0.018214 0.052259
v 0.060310 -0.018214 0.035506
v 0.048365 -0.051035 0.041908
v 0.026840 -0.073748 0.023257
v 0.042241 0.104833 0.001947
v 0.010006 0.073748 0.034076
v 0.018030 0.051035 0.061403
v 0.022483 0.018214 0.076569
v 0.022483 -0.018214 0.065742
v 0.018030 -0.051035 0.047553
v 0.010006 -0.056660 0.034076
v -0.010006 0.073748 0.034076
v -0.018030 0.051035 0.061403
v -0.022483 0.018214 0.076569
v -0.022483 -0.018214 0.065742
v -0.018030 -0.051035 0.047553
v -0.010006 -0.056660 0.034076
v 0.000000 -0.064766 -0.000000
v 0.092187 0.044718 -0.036258
v -0.026840 0.073748 0.023257
v -0.048365 0.051035 0.041908
v -0.060310 0.018214 0.052259
v -0.054868 -0.009817 0.052259
v -0.048365 -0.031442 0.041908
v -0.026840 -0.056660 0.023257
v 0.063233 0.080197 -0.029693
v 0.039404 0.105081 -0.017861
v -0.035153 0.073748 0.005054
v -0.063344 0.051035 0.009108
v -0.078989 0.018214 0.011357
v -0.073547 -0.009817 0.011357
v -0.063344 -0.031442 0.009108
v -0.035153 -0.056660 0.005054
v 0.007928 0.115972 -0.003108
v -0.032306 0.073748 -0.014753
v -0.058213 0.051035 -0.026585
v -0.072590 0.018214 -0.033151
v -0.067148 -0.009817 -0.033151
v -0.058213 -0.031442 -0.026585
v -0.032306 -0.056660 -0.014753
v 0.107500 0.018728 -0.085779
v -0.019201 0.073748 -0.029877
v -0.034599 0.051035 -0.053837
v -0.043144 0.018214 -0.067133
v -0.043144 -0.018214 -0.057221
v -0.034599 -0.031442 -0.041156
v -0.019201 -0.056660 -0.029877
v 0.062853 0.047284 -0.070241
v 0.039709 0.082255 -0.056944
v -0.000000 0.073748 -0.035515
v -0.000000 0.051035 -0.063996
v -0.000000 0.018214 -0.079801
v -0.000000 -0.018214 -0.068061
v -0.000000 -0.051035 -0.048976
v -0.000000 -0.073748 -0.035515
v 0.026349 0.106223 -0.032985
v 0.067695 0.046860 -0.086971
v 0.167581 0.013472 0.023515
v 0.186189 0.011844 -0.010335
v -0.002746 0.108769 0.030969
v -0.012719 0.086842 0.058296
v -0.020016 0.054534 0.073461
v 0.179814 0.012401 -0.047171
v 0.150480 0.014968 -0.075295
v 0.129897 0.016769 0.043635
v 0.110674 0.043100 -0.075295
v -0.019517 0.110236 0.020150
v -0.042939 0.089486 0.038801
v -0.057699 0.057831 0.049151
v 0.140008 0.040534 -0.047171
v 0.146383 0.039976 -0.010335
v 0.090092 0.044901 0.056212
v -0.027798 0.110961 0.001947
v -0.057861 0.090791 0.006000
v -0.076307 0.059459 0.008249
v 0.127775 0.041604 0.023515
v 0.000241 0.028112 -0.082909
v -0.042738 0.031872 -0.070241
v -0.024961 0.110712 -0.017861
v -0.052749 0.090344 -0.029693
v -0.069932 0.058901 -0.036258
v -0.072072 0.034439 -0.036258
v -0.078447 0.034996 0.008249
v -0.059839 0.033368 0.049151
v -0.011906 0.109570 -0.032985
v -0.029225 0.088286 -0.056944
v -0.040598 0.056335 -0.070241
v -0.022156 0.030072 0.073461
v 0.043221 0.024352 -0.070241
v 0.072555 0.021785 -0.036258
v 0.007221 0.107897 -0.038623
v 0.005242 0.085271 -0.067103
v 0.019874 0.051044 -0.082909
v 0.078930 0.021228 0.008249
v 0.060322 0.022856 0.049151
v 0.022638 0.026153 0.073461
vt 0.678278 0.930714
vt 0.750759 0.930714
vt 0.739945 0.968802
vt 0.405321 0.781764
vt 0.400169 0.706822
vt 0.489154 0.706822
vt 0.473787 0.772211
vt 0.768142 0.878462
vt 0.776952 0.806926
vt 0.848298 0.806926
vt 0.857109 0.878462
vt 0.276421 0.314860
vt 0.298630 0.255714
vt 0.313965 0.316138
vt 0.768142 0.939434
vt 0.768142 0.887195
vt 0.836825 0.879358
vt 0.807325 0.945121
vt 0.475613 0.547933
vt 0.400169 0.554477
vt 0.400169 0.465509
vt 0.475631 0.458947
vt 0.243864 0.385892
vt 0.333432 0.391307
vt 0.073825 0.945876
vt 0.146307 0.945876
vt 0.135492 0.983964
vt 0.327329 0.748243
vt 0.393210 0.761349
vt 0.393210 0.834326
vt 0.322687 0.819438
vt 0.385844 0.458051
vt 0.394868 0.339116
vt 0.459703 0.383771
vt 0.343706 0.296016
vt 0.913476 0.878128
vt 0.929352 0.948435
vt 0.858005 0.948435
vt 0.873881 0.878128
vt 0.571570 0.806926
vt 0.587539 0.880970
vt 0.498594 0.879003
vt 0.498594 0.806926
vt 0.147203 0.965673
vt 0.216928 0.945876
vt 0.216928 0.985470
vt 0.480326 0.857800
vt 0.489137 0.929336
vt 0.400169 0.929336
vt 0.408980 0.857800
vt 0.419760 0.273559
vt 0.497698 0.283386
vt 0.357019 0.264740
vt 0.913476 0.806926
vt 0.929352 0.877232
vt 0.858005 0.877232
vt 0.873881 0.806926
vt 0.767245 0.806926
vt 0.767245 0.879003
vt 0.678278 0.879003
vt 0.678278 0.806926
vt 0.407973 0.207366
vt 0.480120 0.175064
vt 0.351730 0.232506
vt 0.900084 0.722747
vt 0.915960 0.793053
vt 0.844614 0.793053
vt 0.860490 0.722747
vt 0.677382 0.806926
vt 0.677382 0.879003
vt 0.588435 0.880948
vt 0.616975 0.806926
vt 0.000448 0.945876
vt 0.072929 0.945876
vt 0.062115 0.983964
vt 0.915960 0.578263
vt 0.926200 0.649608
vt 0.865954 0.645201
vt 0.844614 0.578263
vt 0.322687 0.909692
vt 0.394764 0.909692
vt 0.365018 0.963006
vt 0.332116 0.960896
vt 0.399273 0.568570
vt 0.322687 0.547875
vt 0.325359 0.458947
vt 0.399273 0.472755
vt 0.330838 0.208923
vt 0.363902 0.159753
vt 0.472246 0.930232
vt 0.418568 0.978938
vt 0.400169 0.930232
vt 0.469615 0.640805
vt 0.495985 0.705926
vt 0.400169 0.705926
vt 0.409245 0.631713
vt 0.405131 0.091851
vt 0.378158 0.963902
vt 0.394034 0.992797
vt 0.322687 0.992797
vt 0.338563 0.963902
vt 0.405131 0.000448
vt 0.307961 0.082013
vt 0.296982 0.000448
vt 0.301869 0.199897
vt 0.305381 0.144783
vt 0.289901 0.983947
vt 0.217824 0.983947
vt 0.228700 0.945876
vt 0.480326 0.782660
vt 0.489137 0.856904
vt 0.400169 0.856904
vt 0.408980 0.782660
vt 0.272736 0.206141
vt 0.250311 0.156435
vt 0.986160 0.773256
vt 0.916856 0.793053
vt 0.916856 0.753459
vt 0.915394 0.493457
vt 0.915394 0.568222
vt 0.844614 0.577367
vt 0.852314 0.528825
vt 0.227196 0.098748
vt 0.965293 0.563915
vt 0.974993 0.595425
vt 0.927096 0.649608
vt 0.927096 0.574341
vt 0.210988 0.035368
vt 0.840218 0.946017
vt 0.779017 0.984089
vt 0.768142 0.946017
vt 0.635755 0.957528
vt 0.588435 0.970811
vt 0.588435 0.881844
vt 0.635755 0.886181
vt 0.205626 0.191639
vt 0.160411 0.148016
vt 0.249847 0.226133
vt 0.918187 0.705975
vt 0.844614 0.721851
vt 0.844614 0.650504
vt 0.918187 0.666381
vt 0.110959 0.098418
vt 0.505850 0.928824
vt 0.498572 0.881866
vt 0.587539 0.881866
vt 0.577196 0.928824
vt 0.178279 0.246920
vt 0.112638 0.221016
vt 0.239145 0.256653
vt 0.338564 0.908796
vt 0.322687 0.835222
vt 0.394034 0.835222
vt 0.378158 0.908796
vt 0.050041 0.198259
vt 0.930082 0.987402
vt 0.858005 0.987402
vt 0.868881 0.949331
vt 0.247370 0.291194
vt 0.753545 0.929817
vt 0.678278 0.929817
vt 0.701130 0.879899
vt 0.762662 0.891287
vt 0.084080 0.322676
vt 0.000448 0.273399
vt 0.177368 0.324966
vt 0.999552 0.826723
vt 0.930248 0.846520
vt 0.930248 0.806926
vt 0.962454 0.549288
vt 0.916290 0.562737
vt 0.916290 0.493457
vt 0.960791 0.494412
vt 0.961691 0.702138
vt 0.919084 0.747968
vt 0.919084 0.667790
vt 0.968379 0.650504
vt 0.400169 0.629861
vt 0.405758 0.555373
vt 0.494725 0.555373
vt 0.488181 0.630817
vt 0.498572 0.978153
vt 0.551950 0.929720
vt 0.571053 0.978153
vt 0.366349 0.648831
vt 0.322687 0.657483
vt 0.322687 0.569466
vt 0.397603 0.574995
vt 0.322687 0.658379
vt 0.394223 0.667190
vt 0.394223 0.738536
vt 0.322687 0.747347
vt 0.761540 0.452104
vt 0.725952 0.365874
vt 0.792593 0.348970
vt 0.878657 0.409537
vt 0.727155 0.306073
vt 0.721026 0.251459
vt 0.757095 0.294807
vt 0.838582 0.291353
vt 0.948016 0.308254
vt 0.775964 0.267484
vt 0.841233 0.215482
vt 0.948016 0.189277
vt 0.775563 0.233762
vt 0.796703 0.154754
vt 0.882693 0.088112
vt 0.755841 0.206876
vt 0.725371 0.196518
vt 0.728522 0.134551
vt 0.766558 0.041211
vt 0.014757 0.884692
vt 0.082376 0.824622
vt 0.174563 0.813173
vt 0.101773 0.852315
vt 0.695863 0.204153
vt 0.668168 0.155457
vt 0.125466 0.744761
vt 0.127299 0.653682
vt 0.225127 0.679841
vt 0.221932 0.752063
vt 0.000448 0.944979
vt 0.194609 0.862755
vt 0.631992 0.099565
vt 0.675563 0.224966
vt 0.629394 0.198196
vt 0.579521 0.769072
vt 0.627621 0.694227
vt 0.843718 0.688148
vt 0.797603 0.749184
vt 0.627621 0.605260
vt 0.579521 0.530415
vt 0.791808 0.550835
vt 0.841557 0.614207
vt 0.574243 0.166579
vt 0.084100 0.575320
vt 0.010159 0.521274
vt 0.103969 0.561184
vt 0.181975 0.617955
vt 0.000448 0.458947
vt 0.202894 0.556023
vt 0.278970 0.600424
vt 0.321791 0.667430
vt 0.319038 0.744208
vt 0.271167 0.813691
vt 0.616436 0.252008
vt 0.554106 0.249921
vt 0.668802 0.252476
vt 0.630732 0.304856
vt 0.574651 0.332348
vt 0.676761 0.279541
vt 0.498594 0.806030
vt 0.717856 0.777935
vt 0.595029 0.054415
vt 0.698801 0.000448
vt 0.697563 0.299369
vt 0.523121 0.142502
vt 0.498594 0.493457
vt 0.710265 0.518153
vt 0.669006 0.344640
vt 0.498594 0.251790
vt 0.526743 0.358701
vt 0.630924 0.398569
vt 0.598100 0.440369
vt 0.695930 0.492561
vn -0.0718 -0.9670 0.2445
vn 0.0954 -0.3095 -0.9461
vn 0.2557 0.4195 -0.8710
vn 0.0652 0.9729 -0.2220
vn 0.0111 -0.6380 -0.7699
vn 0.2694 -0.2958 -0.9165
vn 0.1801 0.7690 -0.6133
vn -0.1926 -0.9670 0.1669
vn 0.6479 -0.3119 -0.6950
vn 0.6861 0.4195 -0.5945
vn 0.1749 0.9729 -0.1515
vn 0.4831 -0.7690 -0.4186
vn 0.6857 -0.1161 -0.7186
vn 0.4831 0.7691 -0.4186
vn -0.2523 -0.9670 0.0363
vn 0.8985 -0.4195 -0.1292
vn 0.8985 0.4195 -0.1292
vn 0.2291 0.9729 -0.0329
vn 0.6327 -0.7691 -0.0910
vn 0.9898 0.0000 -0.1423
vn 0.6327 0.7691 -0.0910
vn 0.8257 0.4195 0.3771
vn 0.2105 0.9729 0.0961
vn 0.5814 -0.7691 0.2655
vn 0.8615 -0.1138 0.4948
vn 0.5814 0.7691 0.2655
vn -0.2318 -0.9670 -0.1059
vn 0.8176 -0.3131 0.4832
vn -0.0303 -0.7356 0.6767
vn 0.5591 -0.2935 0.7754
vn 0.3456 0.7690 0.5377
vn -0.5515 -0.7604 0.3428
vn 0.4491 -0.2654 0.8532
vn 0.4908 0.4195 0.7637
vn 0.1251 0.9729 0.1947
vn 0.0000 -0.9228 0.3852
vn 0.0000 -0.2849 0.9586
vn 0.0000 0.7691 0.6392
vn 0.0000 -0.9729 0.2314
vn 0.0000 -0.4847 0.8747
vn 0.0000 0.4195 0.9078
vn 0.0000 0.9729 0.2314
vn -0.3456 0.7690 0.5377
vn -0.1251 -0.9729 0.1947
vn -0.4457 -0.4843 0.7528
vn -0.4908 0.4195 0.7637
vn -0.1251 0.9729 0.1947
vn -0.4617 -0.8127 0.3556
vn -0.4829 -0.1845 0.8560
vn -0.2105 -0.9729 0.0961
vn -0.8225 -0.4271 0.3756
vn -0.8257 0.4195 0.3771
vn -0.2105 0.9729 0.0961
vn -0.6169 -0.7349 0.2817
vn -0.8958 -0.1739 0.4091
vn -0.5814 0.7690 0.2655
vn -0.9019 -0.4120 -0.1297
vn -0.8985 0.4195 -0.1292
vn -0.2291 0.9729 -0.0329
vn -0.6713 -0.7349 -0.0965
vn -0.9720 -0.1887 -0.1398
vn -0.6327 0.7691 -0.0910
vn -0.2291 -0.9729 -0.0329
vn -0.1749 0.9729 -0.1515
vn -0.4741 -0.6569 -0.5863
vn -0.7375 -0.1630 -0.6554
vn -0.4831 0.7690 -0.4186
vn -0.1749 -0.9729 -0.1515
vn -0.5530 -0.6308 -0.5443
vn -0.6861 0.4195 -0.5945
vn -0.5224 -0.5176 -0.6776
vn -0.2527 -0.2756 -0.9275
vn -0.1801 0.7690 -0.6133
vn -0.6203 -0.7604 0.1923
vn -0.3270 -0.6110 -0.7209
vn -0.2558 0.4195 -0.8710
vn -0.0652 0.9729 -0.2220
vn 0.2848 0.4996 -0.8181
vn 0.1497 0.9635 -0.2220
vn 0.2464 0.7504 -0.6133
vn 0.6261 0.6025 -0.4949
vn 0.2590 0.9539 -0.1515
vn 0.5483 0.7240 -0.4186
vn 0.7615 0.6402 -0.1011
vn 0.3130 0.9492 -0.0329
vn 0.6973 0.7110 -0.0910
vn 0.7174 0.6281 0.3014
vn 0.2945 0.9508 0.0961
vn 0.6462 0.7154 0.2655
vn 0.4113 0.7360 0.5377
vn 0.4829 0.5607 0.6726
vn 0.2094 0.9582 0.1947
vn 0.0872 0.9962 0.0000
vn 0.0670 0.7661 0.6392
vn -0.0483 -0.0424 -0.9979
vn 0.0366 0.4179 0.9078
vn 0.0848 0.9692 0.2314
vn -0.2772 0.7962 0.5377
vn -0.0872 -0.9962 0.0000
vn -0.4524 0.4606 0.7637
vn -0.0398 0.9801 0.1947
vn 0.2782 -0.1247 0.9524
vn 0.5561 0.7868 0.2678
vn 0.5105 0.7223 -0.4665
vn -0.7860 0.4898 0.3771
vn -0.1249 0.9875 0.0961
vn 0.5047 0.5690 0.6492
vn 0.5750 0.8135 -0.0872
vn -0.5122 0.8168 0.2655
vn 0.2624 0.3523 -0.8984
vn -0.8586 0.4962 -0.1292
vn -0.1434 0.9891 -0.0329
vn -0.5632 0.8213 -0.0910
vn 0.0000 -0.0000 1.0000
vn -0.0894 0.9844 -0.1515
vn -0.5386 0.0471 0.8413
vn -0.4142 0.8082 -0.4186
vn -0.9062 0.0793 0.4154
vn -0.9861 0.0863 -0.1423
vn -0.6469 0.4777 -0.5945
vn -0.7529 0.0659 -0.6549
vn -0.1124 0.7818 -0.6133
vn -0.2279 0.1047 -0.9680
vn -0.1832 0.3882 -0.9032
vn 0.0198 0.9748 -0.2220
usemtl Material.001
s off
f 47/1/1 84/2/1 12/3/1
f 83/4/2 82/5/2 10/6/2 11/7/2
f 81/8/3 80/9/3 8/10/3 9/11/3
f 79/12/4 13/13/4 7/14/4
f 84/15/5 83/16/5 11/17/5 12/18/5
f 82/19/6 81/20/6 9/21/6 10/22/6
f 80/23/7 79/12/7 7/14/7 8/24/7
f 47/25/8 12/26/8 19/27/8
f 11/28/9 10/29/9 17/30/9 18/31/9
f 9/32/10 8/24/10 15/33/10 16/34/10
f 7/14/11 13/13/11 14/35/11
f 12/36/12 11/37/12 18/38/12 19/39/12
f 10/40/13 9/41/13 16/42/13 17/43/13
f 8/24/14 7/14/14 14/35/14 15/33/14
f 47/44/15 19/45/15 25/46/15
f 18/47/16 17/48/16 23/49/16 24/50/16
f 16/34/17 15/33/17 21/51/17 22/52/17
f 14/35/18 13/13/18 20/53/18
f 19/54/19 18/55/19 24/56/19 25/57/19
f 17/58/20 16/59/20 22/60/20 23/61/20
f 15/33/21 14/35/21 20/53/21 21/51/21
f 22/52/22 21/51/22 29/62/22 30/63/22
f 20/53/23 13/13/23 28/64/23
f 25/65/24 24/66/24 32/67/24 33/68/24
f 23/69/25 22/70/25 30/71/25 31/72/25
f 21/51/26 20/53/26 28/64/26 29/62/26
f 47/73/27 25/74/27 33/75/27
f 24/76/28 23/77/28 31/78/28 32/79/28
f 33/80/29 32/81/29 39/82/29 40/83/29
f 31/84/30 30/85/30 37/86/30 38/87/30
f 29/62/31 28/64/31 35/88/31 36/89/31
f 47/90/32 33/91/32 40/92/32
f 32/93/33 31/94/33 38/95/33 39/96/33
f 30/63/34 29/62/34 36/89/34 37/97/34
f 28/64/35 13/13/35 35/88/35
f 40/98/36 39/99/36 45/100/36 46/101/36
f 38/102/37 37/97/37 43/103/37 44/104/37
f 36/89/38 35/88/38 41/105/38 42/106/38
f 47/107/39 40/108/39 46/109/39
f 39/110/40 38/111/40 44/112/40 45/113/40
f 37/97/41 36/89/41 42/106/41 43/103/41
f 35/88/42 13/13/42 41/105/42
f 42/106/43 41/105/43 49/114/43 50/115/43
f 47/116/44 46/117/44 54/118/44
f 45/119/45 44/120/45 52/121/45 53/122/45
f 43/103/46 42/106/46 50/115/46 51/123/46
f 41/105/47 13/13/47 49/114/47
f 46/124/48 45/125/48 53/126/48 54/127/48
f 44/104/49 43/103/49 51/123/49 52/128/49
f 47/129/50 54/130/50 62/131/50
f 53/132/51 52/133/51 60/134/51 61/135/51
f 51/123/52 50/115/52 58/136/52 59/137/52
f 49/114/53 13/13/53 57/138/53
f 54/139/54 53/140/54 61/141/54 62/142/54
f 52/128/55 51/123/55 59/137/55 60/143/55
f 50/115/56 49/114/56 57/138/56 58/136/56
f 61/144/57 60/145/57 67/146/57 68/147/57
f 59/137/58 58/136/58 65/148/58 66/149/58
f 57/138/59 13/13/59 64/150/59
f 62/151/60 61/152/60 68/153/60 69/154/60
f 60/143/61 59/137/61 66/149/61 67/155/61
f 58/136/62 57/138/62 64/150/62 65/148/62
f 47/156/63 62/157/63 69/158/63
f 64/150/64 13/13/64 71/159/64
f 69/160/65 68/161/65 75/162/65 76/163/65
f 67/155/66 66/149/66 73/164/66 74/165/66
f 65/148/67 64/150/67 71/159/67 72/166/67
f 47/167/68 69/168/68 76/169/68
f 68/170/69 67/171/69 74/172/69 75/173/69
f 66/149/70 65/148/70 72/166/70 73/164/70
f 76/174/71 75/175/71 83/176/71 84/177/71
f 74/178/72 73/179/72 81/180/72 82/181/72
f 72/166/73 71/159/73 79/12/73 80/23/73
f 47/182/74 76/183/74 84/184/74
f 75/185/75 74/186/75 82/187/75 83/188/75
f 73/189/76 72/190/76 80/191/76 81/192/76
f 71/159/77 13/13/77 79/12/77
f 122/193/78 121/194/78 78/195/78 77/196/78
f 120/197/79 63/198/79 85/199/79
f 121/194/80 120/197/80 85/199/80 78/195/80
f 77/196/81 78/195/81 55/200/81 48/201/81
f 85/199/82 63/198/82 56/202/82
f 78/195/83 85/199/83 56/202/83 55/200/83
f 48/201/84 55/200/84 27/203/84 26/204/84
f 56/202/85 63/198/85 34/205/85
f 55/200/86 56/202/86 34/205/86 27/203/86
f 26/204/87 27/203/87 5/206/87 4/207/87
f 34/205/88 63/198/88 6/208/88
f 27/203/89 34/205/89 6/208/89 5/206/89
f 5/206/90 6/208/90 3/209/90 2/210/90
f 4/207/91 5/206/91 2/210/91 1/211/91
f 6/208/92 63/198/92 3/209/92
f 122/212/93 77/213/93 95/214/93 86/215/93
f 2/210/94 3/209/94 89/216/94 90/217/94
f 48/218/93 26/219/93 100/220/93 99/221/93
f 106/222/95 122/212/95 86/215/95 70/223/95
f 1/211/96 2/210/96 90/217/96 91/224/96
f 3/209/97 63/198/97 89/216/97
f 90/217/98 89/216/98 96/225/98 97/226/98
f 124/227/99 123/228/99 88/229/99 87/230/99
f 119/231/99 118/232/99 93/233/99 92/234/99
f 91/224/100 90/217/100 97/226/100 98/235/100
f 89/216/101 63/198/101 96/225/101
f 4/236/93 1/237/93 101/238/93 105/239/93
f 1/237/102 125/240/102 94/241/102 101/238/102
f 100/220/103 105/239/103 87/242/103 88/243/103
f 95/214/104 99/221/104 92/244/104 93/245/104
f 98/235/105 97/226/105 103/246/105 104/247/105
f 96/225/106 63/198/106 102/248/106
f 105/239/107 101/238/107 94/241/107 87/242/107
f 99/221/108 100/220/108 88/243/108 92/244/108
f 97/226/109 96/225/109 102/248/109 103/246/109
f 86/215/110 95/214/110 93/245/110 70/223/110
f 104/247/111 103/246/111 109/249/111 110/250/111
f 102/248/112 63/198/112 108/251/112
f 125/252/99 124/227/99 87/230/99 94/253/99
f 77/213/93 48/218/93 99/221/93 95/214/93
f 103/246/113 102/248/113 108/251/113 109/249/113
f 1/211/114 91/224/114 117/254/114 125/255/114
f 108/251/115 63/198/115 114/256/115
f 91/224/116 98/235/116 113/257/116 117/254/116
f 118/232/99 106/258/99 70/259/99 93/233/99
f 109/249/117 108/251/117 114/256/117 115/260/117
f 98/235/118 104/247/118 112/261/118 113/257/118
f 104/247/119 110/250/119 111/262/119 112/261/119
f 110/250/120 109/249/120 115/260/120 116/263/120
f 26/219/93 4/236/93 105/239/93 100/220/93
f 110/250/121 116/263/121 107/264/121 111/262/121
f 115/260/122 114/256/122 120/197/122 121/194/122
f 123/228/99 119/231/99 92/234/99 88/229/99
f 116/263/123 122/193/123 106/265/123 107/264/123
f 116/263/124 115/260/124 121/194/124 122/193/124
f 114/256/125 63/198/125 120/197/125
