# Blender v2.79 (sub 0) OBJ File: ''
# www.blender.org
mtllib obstacle_1.mtl
o Cube_Cube.011
v -1.593027 -0.026302 0.095209
v -1.593027 1.473698 0.095209
v -1.593027 -0.026302 -0.104791
v -1.593027 1.473698 -0.104791
v -1.393027 -0.026302 0.095209
v -1.393027 1.473698 0.095209
v -1.393027 -0.026302 -0.104791
v -1.393027 1.473698 -0.104791
v -1.593027 1.673698 0.095209
v -1.593027 1.673698 -0.104791
v -1.393027 1.673698 -0.104791
v -1.393027 1.673698 0.095209
v 1.393829 1.473698 -0.104791
v 1.393829 1.473698 0.095209
v 1.393829 1.673698 -0.104791
v 1.393829 1.673698 0.095209
v 1.205686 1.473698 0.095209
v 1.205686 1.673698 0.095209
v 1.205686 1.673698 -0.104791
v 1.205686 1.473698 -0.104791
v 1.393829 0.003069 -0.104791
v 1.393829 0.003069 0.095209
v 1.205686 0.003069 0.095209
v 1.205686 0.003069 -0.104791
v -0.187657 1.673698 0.095209
v -0.187657 1.673698 -0.104791
v -0.187657 1.473698 0.095209
v -0.187657 1.473698 -0.104791
v 0.024965 1.473698 0.095209
v 0.024965 1.473698 -0.104791
v 0.024965 1.673698 0.095209
v 0.024965 1.673698 -0.104791
v -0.187657 -0.026302 -0.104791
v -0.187657 -0.026302 0.095209
v 0.024965 -0.026302 0.095209
v 0.024965 -0.026302 -0.104791
vn -1.0000 0.0000 0.0000
vn 0.0000 0.0000 -1.0000
vn 1.0000 0.0000 0.0000
vn 0.0000 0.0000 1.0000
vn 0.0000 1.0000 0.0000
vn 0.0000 -1.0000 0.0000
usemtl None
s off
f 1//1 2//1 4//1 3//1
f 3//2 4//2 8//2 7//2
f 7//3 8//3 6//3 5//3
f 5//4 6//4 2//4 1//4
f 4//1 2//1 9//1 10//1
f 11//5 10//5 9//5 12//5
f 2//4 6//4 12//4 9//4
f 8//2 4//2 10//2 11//2
f 18//4 17//4 14//4 16//4
f 14//3 13//3 15//3 16//3
f 19//5 18//5 16//5 15//5
f 14//4 17//4 23//4 22//4
f 20//2 19//2 15//2 13//2
f 30//2 32//2 19//2 20//2
f 29//6 30//6 20//6 17//6
f 32//5 31//5 18//5 19//5
f 31//4 29//4 17//4 18//4
f 17//1 20//1 24//1 23//1
f 13//3 14//3 22//3 21//3
f 20//2 13//2 21//2 24//2
f 12//4 6//4 27//4 25//4
f 11//5 12//5 25//5 26//5
f 6//6 8//6 28//6 27//6
f 8//2 11//2 26//2 28//2
f 25//4 27//4 29//4 31//4
f 26//5 25//5 31//5 32//5
f 28//2 30//2 36//2 33//2
f 28//2 26//2 32//2 30//2
f 30//3 29//3 35//3 36//3
f 29//4 27//4 34//4 35//4
f 27//1 28//1 33//1 34//1
