# Blender v2.79 (sub 0) OBJ File: ''
# www.blender.org
mtllib obstacle_11.mtl
o Cube_Cube.009
v -0.677773 0.012072 0.877584
v -0.564722 2.172978 0.168138
v -0.564722 2.172978 0.010908
v -0.677773 0.012072 0.720354
v 0.662815 2.172978 0.010908
v 0.775865 0.012072 0.720354
v 0.662815 2.172978 0.168138
v 0.775865 0.012072 0.877584
v -0.677773 0.004758 -0.866757
v -0.677773 0.004758 -0.709528
v -0.564722 2.165664 -0.000082
v -0.564722 2.165664 -0.157311
v 0.775865 0.004758 -0.709528
v 0.662815 2.165664 -0.000082
v 0.775865 0.004758 -0.866757
v 0.662815 2.165664 -0.157311
vt 0.500177 0.000177
vt 0.954262 0.120129
vt 0.935429 0.145819
vt 0.502075 0.032549
vt 0.962309 0.300497
vt 0.500177 0.475296
vt 0.999823 0.325272
vt 0.501713 0.511993
vt 0.500177 0.987742
vt 0.523807 0.512348
vt 0.780388 0.512348
vt 0.804017 0.987742
vt 0.000177 0.511994
vt 0.002075 0.479621
vt 0.435429 0.366350
vt 0.454262 0.392039
vt 0.000177 0.036874
vt 0.462309 0.211673
vt 0.001713 0.000177
vt 0.499823 0.186898
vt 0.000177 0.816189
vt 0.000177 0.512348
vt 0.475571 0.535978
vt 0.475571 0.792559
vn -0.9986 0.0522 0.0000
vn 0.0000 -0.3119 -0.9501
vn 0.9986 0.0522 0.0000
vn 0.0000 0.3119 0.9501
vn 0.0000 1.0000 0.0000
vn 0.0000 -0.3119 0.9501
vn 0.0000 0.3119 -0.9501
usemtl None
s 1
f 1/1/1 2/2/1 3/3/1 4/4/1
f 4/4/2 3/3/2 5/5/2 6/6/2
f 6/6/3 5/5/3 7/7/3 8/8/3
f 8/9/4 7/10/4 2/11/4 1/12/4
f 5/5/5 3/3/5 2/2/5 7/7/5
f 9/13/1 10/14/1 11/15/1 12/16/1
f 10/14/6 13/17/6 14/18/6 11/15/6
f 13/17/3 15/19/3 16/20/3 14/18/3
f 15/21/7 9/22/7 12/23/7 16/24/7
f 14/18/5 16/20/5 12/16/5 11/15/5
