# Blender v2.79 (sub 0) OBJ File: ''
# www.blender.org
mtllib obstacle_8.mtl
o Cube_Cube.006
v -0.126857 -0.011093 0.141386
v -0.126857 2.158393 0.141386
v -0.126857 2.158393 -0.122561
v -0.126857 -0.011093 -0.122561
v 0.137090 2.158393 -0.122561
v 0.137090 -0.011093 -0.122561
v 0.137090 2.158393 0.141386
v 0.137090 -0.011093 0.141386
v -0.560080 3.884365 -0.163445
v -0.923351 3.384365 -0.163445
v -0.923351 3.384365 0.189612
v -0.560080 3.884365 0.189612
v 0.978762 3.384366 -0.163445
v 0.615490 3.884366 -0.163445
v 0.615490 3.884366 0.189612
v 0.978762 3.384366 0.189612
v 0.027705 2.075348 -0.163446
v 0.615490 2.266331 -0.163446
v 0.615490 2.266331 0.189611
v 0.027705 2.075348 0.189611
v -0.923351 2.766331 -0.163446
v -0.923351 2.766331 0.189611
v 0.027705 4.075348 -0.163445
v 0.027705 4.075348 0.189612
v 0.978762 2.766331 -0.163446
v 0.978762 2.766331 0.189611
v -0.560080 2.266331 -0.163446
v -0.560080 2.266331 0.189611
vt 0.621612 0.750251
vt 0.446608 0.658048
vt 0.533249 0.743478
vt 0.621612 0.575551
vt 0.629439 0.668356
vt 0.454435 0.576153
vt 0.542798 0.582926
vt 0.454435 0.750853
vt 0.409923 0.136587
vt 0.290333 0.095111
vt 0.287216 0.000162
vt 0.462069 0.057763
vt 0.403426 0.452719
vt 0.480903 0.359820
vt 0.569868 0.386292
vt 0.457638 0.528400
vt 0.087443 0.350954
vt 0.158859 0.449065
vt 0.110679 0.528116
vt 0.000162 0.384325
vt 0.168645 0.130108
vt 0.111038 0.054741
vt 0.482320 0.238540
vt 0.569868 0.205375
vt 0.279641 0.481551
vt 0.282844 0.575226
vt 0.091085 0.228216
vt 0.000659 0.201699
vt 0.913448 0.403683
vt 0.782336 0.446284
vt 0.651224 0.403683
vt 0.570193 0.292153
vt 0.570193 0.154294
vt 0.651224 0.042763
vt 0.782336 0.000162
vt 0.913448 0.042763
vt 0.994480 0.154294
vt 0.994480 0.292153
vt 0.403683 0.656582
vt 0.446284 0.787694
vt 0.403683 0.918806
vt 0.292153 0.999838
vt 0.154293 0.999838
vt 0.042763 0.918806
vt 0.000162 0.787694
vt 0.042763 0.656582
vt 0.154294 0.575551
vt 0.292153 0.575551
vn -0.7071 -0.0000 0.7071
vn -0.5774 0.5774 0.5774
vn -0.5774 0.5774 -0.5774
vn -0.7071 0.0000 -0.7071
vn 0.5774 0.5774 -0.5774
vn 0.7071 0.0000 -0.7071
vn 0.5774 0.5774 0.5774
vn 0.7071 -0.0000 0.7071
vn -0.4498 0.6191 -0.6437
vn -0.7278 0.2365 -0.6437
vn -0.7278 0.2365 0.6437
vn -0.4498 0.6191 0.6437
vn 0.7278 0.2365 -0.6437
vn 0.4498 0.6191 -0.6437
vn 0.4498 0.6191 0.6437
vn 0.7278 0.2365 0.6437
vn -0.0000 -0.7653 -0.6437
vn 0.4498 -0.6191 -0.6437
vn 0.4498 -0.6191 0.6437
vn 0.0000 -0.7653 0.6437
vn -0.7278 -0.2365 -0.6437
vn -0.7278 -0.2365 0.6437
vn -0.0000 0.7653 -0.6437
vn -0.0000 0.7653 0.6437
vn 0.7278 -0.2365 -0.6437
vn 0.7278 -0.2365 0.6437
vn -0.4498 -0.6191 -0.6437
vn -0.4498 -0.6191 0.6437
usemtl None
s 1
f 1/1/1 2/2/2 3/3/3 4/4/4
f 4/4/4 3/3/3 5/5/5 6/6/6
f 6/6/6 5/5/5 7/7/7 8/8/8
f 8/8/8 7/7/7 2/2/2 1/1/1
f 5/5/5 3/3/3 2/2/2 7/7/7
f 9/9/9 10/10/10 11/11/11 12/12/12
f 13/13/13 14/14/14 15/15/15 16/16/16
f 17/17/17 18/18/18 19/19/19 20/20/20
f 10/10/10 21/21/21 22/22/22 11/11/11
f 14/14/14 23/23/23 24/24/24 15/15/15
f 18/18/18 25/25/25 26/26/26 19/19/19
f 21/21/21 27/27/27 28/28/28 22/22/22
f 23/23/23 9/9/9 12/12/12 24/24/24
f 25/25/25 13/13/13 16/16/16 26/26/26
f 27/27/27 17/17/17 20/20/20 28/28/28
f 12/29/12 11/30/11 22/31/22 28/32/28 20/33/20 19/34/19 26/35/26 16/36/16 15/37/15 24/38/24
f 9/39/9 23/40/23 14/41/14 13/42/13 25/43/25 18/44/18 17/45/17 27/46/27 21/47/21 10/48/10
