# Blender v2.79 (sub 0) OBJ File: ''
# www.blender.org
mtllib static_forward_5.mtl
o Cube_Cube.009
v -4.000000 8.139352 0.000001
v -4.000000 10.048443 0.000002
v -4.000000 9.243245 3.501441
v -4.000000 7.846552 3.818706
v -3.300200 4.948443 0.000001
v -4.000000 7.048443 0.000001
v -4.000000 5.626452 2.029097
v -4.000000 4.009047 3.427704
v -3.472812 3.420179 0.000001
v -3.740331 3.257342 2.619355
v -3.740331 1.691836 0.000000
v -4.000000 2.474405 0.000000
v -4.000000 2.792145 2.119106
v -3.740331 2.397702 2.572234
v -4.981997 5.875154 2.024008
v -4.981997 6.924093 0.527234
v -4.981997 6.924092 3.477857
v -4.000000 7.048442 4.000001
v -3.766935 7.070740 3.874273
v -3.737166 7.831168 3.704122
v -3.110132 7.070740 0.120157
v -3.110132 8.110142 0.120157
v -4.000000 0.048443 0.000000
v -4.000000 1.569370 3.523805
v -5.148847 3.294567 2.385115
v -5.383660 2.873899 1.932750
v -5.383660 6.722782 3.633605
v -5.383660 3.974318 3.116089
v -5.383660 7.444496 3.469663
v -5.147609 1.619051 4.790637
v -4.802864 -0.037760 0.016486
v -5.148847 2.517211 2.342505
v -5.383660 9.435619 0.016488
v -5.383660 8.707496 3.182766
v -3.987944 -0.031282 4.964073
v -5.383660 7.435619 0.016487
v -5.383660 4.435619 0.016487
v -5.383660 1.435619 0.016486
v -5.299357 -0.228433 4.508721
v -4.000000 7.846553 -3.818704
v -4.000000 9.243247 -3.501438
v -4.000000 4.009048 -3.427702
v -4.000000 5.626453 -2.029095
v -3.740331 3.257343 -2.619354
v -3.740331 2.397702 -2.572233
v -4.000000 2.792145 -2.119105
v -4.981997 5.875154 -2.024006
v -4.981997 6.924093 -3.477855
v -4.981997 6.924093 -0.527232
v -4.000000 7.048443 -3.999999
v -3.737166 7.831169 -3.704120
v -3.766935 7.070741 -3.874271
v -3.110132 7.070740 -0.120155
v -3.110132 8.110142 -0.120155
v -4.000000 1.569372 -3.523805
v -5.383660 2.873899 -1.932750
v -5.148847 3.294568 -2.385114
v -5.383660 3.974319 -3.116087
v -5.383660 6.722783 -3.633603
v -5.383660 7.444497 -3.469661
v -4.802864 -0.037760 -0.016486
v -5.147609 1.619053 -4.790636
v -5.148847 2.517212 -2.342505
v -5.383660 8.707498 -3.182764
v -5.383660 9.435619 -0.016484
v -3.987944 -0.031280 -4.964073
v -5.383660 7.435619 -0.016485
v -5.383660 4.435619 -0.016485
v -5.383660 1.435619 -0.016486
v -5.299357 -0.228431 -4.508721
vt 0.478805 0.428175
vt 0.466712 0.527933
vt 0.399327 0.422203
vt 0.393250 0.398918
vt 0.503835 0.275604
vt 0.487821 0.362644
vt 0.426110 0.310077
vt 0.355649 0.269364
vt 0.516235 0.216831
vt 0.360982 0.212171
vt 0.455877 0.558990
vt 0.490636 0.567906
vt 0.480409 0.660599
vt 0.455877 0.675074
vt 0.269453 0.624131
vt 0.315104 0.558990
vt 0.315104 0.687403
vt 0.390766 0.379444
vt 0.450264 0.355164
vt 0.431736 0.344059
vt 0.419354 0.356737
vt 0.395829 0.381940
vt 0.399244 0.396138
vt 0.223874 0.558990
vt 0.269109 0.558990
vt 0.256968 0.717336
vt 0.223874 0.724853
vt 0.452483 0.401675
vt 0.450637 0.386101
vt 0.408660 0.563841
vt 0.455533 0.558990
vt 0.455533 0.673798
vt 0.430193 0.654577
vt 0.551656 0.048437
vt 0.533292 0.130266
vt 0.349742 0.146906
vt 0.326086 0.066724
vt 0.322310 0.184835
vt 0.269371 0.246110
vt 0.228716 0.216538
vt 0.346552 0.386042
vt 0.303817 0.292002
vt 0.357123 0.404504
vt 0.262682 0.000172
vt 0.548373 0.000172
vt 0.238887 0.168387
vt 0.388113 0.543715
vt 0.373730 0.429668
vt 0.089232 0.999828
vt 0.092391 0.779409
vt 0.177949 0.800451
vt 0.276096 0.509738
vt 0.141784 0.368701
vt 0.058690 0.226211
vt 0.000172 0.166172
vt 0.164367 0.740959
vt 0.089232 0.558990
vt 0.567081 0.421469
vt 0.556082 0.441598
vt 0.630985 0.319419
vt 0.561457 0.332704
vt 0.639465 0.274095
vt 0.490980 0.675074
vt 0.490980 0.558990
vt 0.515511 0.573465
vt 0.525739 0.666158
vt 0.315448 0.622263
vt 0.361099 0.558990
vt 0.361099 0.687403
vt 0.574124 0.404247
vt 0.547013 0.361619
vt 0.526602 0.366624
vt 0.554790 0.376516
vt 0.562238 0.417412
vt 0.568887 0.405253
vt 0.178294 0.724853
vt 0.178293 0.558990
vt 0.211387 0.566507
vt 0.223529 0.724853
vt 0.511291 0.409341
vt 0.517137 0.394973
vt 0.361443 0.668947
vt 0.382976 0.578212
vt 0.408316 0.558990
vt 0.408316 0.673798
vt 0.728291 0.147036
vt 0.681580 0.197549
vt 0.657304 0.229065
vt 0.748667 0.304071
vt 0.711245 0.315552
vt 0.670628 0.348466
vt 0.612151 0.420650
vt 0.598596 0.434904
vt 0.572754 0.010410
vt 0.800719 0.119441
vt 0.754926 0.265793
vt 0.577902 0.454149
vt 0.539550 0.558646
vt 0.088888 0.999828
vt 0.000172 0.800451
vt 0.085729 0.779409
vt 0.649226 0.546660
vt 0.783822 0.447756
vt 0.879117 0.363498
vt 0.942140 0.336314
vt 0.013753 0.740959
vt 0.088888 0.558990
vn 0.8004 0.5995 0.0000
vn 0.5029 0.8644 0.0000
vn 0.4468 0.6497 0.6150
vn 0.2120 0.4232 0.8809
vn 0.9887 0.1499 0.0000
vn 0.7525 -0.6586 -0.0000
vn 0.8372 0.5345 0.1159
vn 0.5078 -0.3629 0.7813
vn 0.9665 -0.2567 -0.0000
vn 0.6551 -0.5566 0.5108
vn 0.9985 0.0540 0.0000
vn 0.9996 -0.0291 0.0000
vn 0.8014 -0.0440 0.5966
vn 0.8047 0.4887 0.3372
vn 0.6887 0.7250 -0.0040
vn 0.7244 -0.2326 0.6490
vn 0.7232 -0.2386 -0.6481
vn 0.2613 -0.2372 0.9356
vn 0.6383 -0.5542 0.5343
vn 0.6455 0.6107 0.4587
vn 0.6712 -0.5640 -0.4810
vn 0.6672 0.5843 -0.4620
vn 0.6845 -0.7290 -0.0000
vn 0.7515 -0.1125 0.6500
vn -0.6536 -0.5481 0.5219
vn -0.8976 -0.0256 0.4401
vn -0.7545 -0.0073 0.6562
vn -0.7164 -0.3983 0.5728
vn -0.8051 0.1314 0.5784
vn -0.4091 -0.0992 0.9071
vn 0.2506 -0.9005 0.3553
vn -0.7007 0.4449 0.5577
vn -0.7935 0.5931 0.1364
vn -0.7526 0.4445 0.4858
vn 0.8173 0.5601 -0.1354
vn -0.2369 0.8658 0.4407
vn 0.5960 0.4860 0.6392
vn -1.0000 0.0000 0.0000
vn -0.9999 -0.0063 0.0138
vn -0.9888 -0.1397 0.0530
vn -0.9814 -0.1835 0.0556
vn -0.8898 0.0034 0.4564
vn -0.9897 0.0973 -0.1052
vn 0.2120 0.4232 -0.8809
vn 0.4468 0.6497 -0.6150
vn 0.5078 -0.3629 -0.7813
vn 0.8372 0.5345 -0.1159
vn 0.6551 -0.5566 -0.5108
vn 0.8047 0.4887 -0.3372
vn 0.8014 -0.0440 -0.5966
vn 0.6887 0.7250 0.0040
vn 0.7232 -0.2386 0.6481
vn 0.7244 -0.2326 -0.6490
vn 0.2613 -0.2372 -0.9356
vn 0.6455 0.6107 -0.4587
vn 0.6383 -0.5542 -0.5343
vn 0.6712 -0.5640 0.4810
vn 0.6672 0.5843 0.4620
vn 0.7515 -0.1125 -0.6500
vn -0.8976 -0.0256 -0.4401
vn -0.6536 -0.5481 -0.5219
vn -0.7164 -0.3983 -0.5728
vn -0.7545 -0.0073 -0.6562
vn -0.8051 0.1314 -0.5784
vn 0.2506 -0.9005 -0.3553
vn -0.4091 -0.0992 -0.9071
vn -0.7007 0.4449 -0.5577
vn -0.7526 0.4445 -0.4858
vn -0.7935 0.5931 -0.1364
vn 0.8173 0.5601 0.1354
vn 0.5960 0.4860 -0.6392
vn -0.2369 0.8658 -0.4407
vn -0.9999 -0.0063 -0.0138
vn -0.9888 -0.1397 -0.0530
vn -0.9814 -0.1835 -0.0556
vn -0.8898 0.0034 -0.4564
vn -0.9897 0.0973 0.1052
usemtl None.010
s 1
f 1/1/1 2/2/2 3/3/3 4/4/4
f 5/5/5 6/6/6 7/7/7 8/8/8
f 9/9/9 5/5/5 8/8/8 10/10/10
f 11/11/11 12/12/12 13/13/13 14/14/14
f 15/15/15 16/16/16 17/17/17
f 8/8/8 7/7/7 18/18/18
f 7/7/7 6/6/6 16/19/16 15/20/15
f 18/18/18 7/7/7 15/20/15 17/21/17
f 6/6/6 18/18/18 17/21/17 16/19/16
f 4/4/4 18/18/18 19/22/19 20/23/20
f 21/24/21 22/25/22 20/26/20 19/27/19
f 1/1/1 4/4/4 20/23/20 22/28/22
f 18/18/18 6/6/6 21/29/21 19/22/19
f 6/6/6 1/1/1 22/28/22 21/29/21
f 12/30/12 9/31/9 10/32/10 13/33/13
f 23/34/23 11/35/11 14/36/14 24/37/24
f 13/38/13 10/10/10 25/39/25 26/40/26
f 8/8/8 18/18/18 27/41/27 28/42/28
f 18/18/18 4/4/4 29/43/29 27/41/27
f 23/34/23 24/37/24 30/44/30 31/45/31
f 14/36/14 13/38/13 26/40/26 32/46/32
f 3/3/3 2/2/2 33/47/33 34/48/34
f 10/10/10 8/8/8 28/42/28 25/39/25
f 4/4/4 3/3/3 34/48/34 29/43/29
f 24/37/24 14/36/14 32/46/32 30/44/30
f 31/49/35 30/50/36 35/51/37
f 36/52/38 29/43/29 34/48/34 33/47/33
f 28/42/28 27/41/27 36/52/38 37/53/39
f 27/41/27 29/43/29 36/52/38
f 37/53/39 26/40/26 25/39/25
f 25/39/25 28/42/28 37/53/39
f 26/40/26 38/54/40 32/46/32
f 37/53/39 38/54/40 26/40/26
f 32/46/32 38/54/40 31/55/41 30/44/30
f 35/51/37 30/50/36 39/56/42
f 39/56/42 30/50/36 31/57/43
f 1/1/1 40/58/44 41/59/45 2/2/2
f 5/5/5 42/60/46 43/61/47 6/6/6
f 9/9/9 44/62/48 42/60/46 5/5/5
f 11/63/11 45/64/49 46/65/50 12/66/12
f 47/67/51 48/68/52 49/69/53
f 42/60/46 50/70/54 43/61/47
f 43/61/47 47/71/51 49/72/53 6/6/6
f 50/70/54 48/73/52 47/71/51 43/61/47
f 6/6/6 49/72/53 48/73/52 50/70/54
f 40/58/44 51/74/55 52/75/56 50/70/54
f 53/76/57 52/77/56 51/78/55 54/79/58
f 1/1/1 54/80/58 51/74/55 40/58/44
f 50/70/54 52/75/56 53/81/57 6/6/6
f 6/6/6 53/81/57 54/80/58 1/1/1
f 12/82/12 46/83/50 44/84/48 9/85/9
f 23/34/23 55/86/59 45/87/49 11/35/11
f 46/88/50 56/89/60 57/90/61 44/62/48
f 42/60/46 58/91/62 59/92/63 50/70/54
f 50/70/54 59/92/63 60/93/64 40/58/44
f 23/34/23 61/94/65 62/95/66 55/86/59
f 45/87/49 63/96/67 56/89/60 46/88/50
f 41/59/45 64/97/68 65/98/69 2/2/2
f 44/62/48 57/90/61 58/91/62 42/60/46
f 40/58/44 60/93/64 64/97/68 41/59/45
f 55/86/59 62/95/66 63/96/67 45/87/49
f 61/99/70 66/100/71 62/101/72
f 67/102/38 65/98/69 64/97/68 60/93/64
f 58/91/62 68/103/73 67/102/38 59/92/63
f 59/92/63 67/102/38 60/93/64
f 68/103/73 57/90/61 56/89/60
f 57/90/61 68/103/73 58/91/62
f 56/89/60 63/96/67 69/104/74
f 68/103/73 56/89/60 69/104/74
f 63/96/67 62/95/66 61/105/75 69/104/74
f 66/100/71 70/106/76 62/101/72
f 70/106/76 61/107/77 62/101/72
