# Blender v2.79 (sub 0) OBJ File: ''
# www.blender.org
mtllib static_forward_6.mtl
o Cube_Cube.011
v -4.102965 -0.622858 -3.584999
v -4.420281 10.287531 0.762886
v -4.784208 10.330368 0.628834
v -4.466892 -0.580022 -3.719050
v -4.590856 -0.405108 -4.167021
v -4.908171 10.505281 0.180864
v -4.773420 10.685612 -0.261812
v -4.456104 -0.224779 -4.609697
v -4.089111 -0.166645 -4.728794
v -4.406427 10.743746 -0.380908
v -4.042501 10.700909 -0.246857
v -3.725185 -0.209480 -4.594742
v -3.601221 -0.384395 -4.146771
v -3.918537 10.525995 0.201113
v -4.053289 10.345665 0.643790
v -3.735973 -0.564724 -3.704095
v -3.544062 17.033310 -0.343031
v -5.590279 17.225578 -0.844536
v -5.667141 17.572201 2.557389
v -3.620924 17.379932 3.058894
v -3.386152 10.581987 -1.461414
v -5.432369 10.774258 -1.962918
v -5.485796 14.200209 -2.856261
v -3.439579 14.007938 -2.354757
v -3.524652 11.206580 4.668642
v -5.570868 11.398850 4.167138
v -5.470230 9.527534 1.162788
v -3.424013 9.335266 1.664293
v -5.658502 14.979062 4.787793
v -3.612285 14.786792 5.289298
v -4.509285 -0.299190 5.132062
v -4.622550 4.163139 5.122153
v -6.146594 4.163139 4.988816
v -6.033329 -0.299190 4.998725
v -5.903833 4.163141 -5.116123
v -5.790568 -0.299188 -5.106213
v -4.379789 4.163141 -4.982786
v -4.266525 -0.299188 -4.972877
vt 0.010487 0.928813
vt 0.136753 0.832950
vt 0.097020 0.820594
vt 0.048905 0.965274
vt 0.128109 0.965956
vt 0.040504 0.850819
vt 0.020684 0.912978
vt 0.173297 0.905755
vt 0.164307 0.854910
vt 0.039298 0.949798
vt 0.076990 0.967100
vt 0.126346 0.818720
vt 0.045244 0.818720
vt 0.131094 0.931553
vt 0.155857 0.869994
vt 0.000209 0.877402
vt 0.495159 0.187198
vt 0.376929 0.223796
vt 0.314584 0.124608
vt 0.350425 0.013261
vt 0.171018 0.491500
vt 0.217358 0.374395
vt 0.330226 0.329418
vt 0.428053 0.440573
vt 0.000209 0.147608
vt 0.093208 0.186360
vt 0.108369 0.313558
vt 0.000209 0.348859
vt 0.192070 0.097620
vt 0.138886 0.000209
vt 0.842409 0.762038
vt 0.842409 0.912905
vt 0.718626 0.999153
vt 0.564271 0.955835
vt 0.495577 0.815571
vt 0.564271 0.683982
vt 0.718626 0.660158
vt 0.264565 0.818303
vt 0.104247 0.818303
vt 0.000209 0.701817
vt 0.030792 0.556562
vt 0.172968 0.491917
vt 0.319676 0.556562
vt 0.360440 0.701817
vt 0.629639 0.000209
vt 0.802436 0.125283
vt 0.744169 0.164075
vt 0.588295 0.060504
vt 0.727253 0.484330
vt 0.495577 0.566033
vt 0.802436 0.547120
vt 0.531800 0.659741
vt 0.802853 0.000548
vt 0.999741 0.000209
vt 0.999791 0.446046
vt 0.802903 0.446385
vn -0.0113 -0.3705 0.9288
vn -0.7465 -0.2649 0.6103
vn -0.9996 -0.0209 -0.0205
vn -0.7314 0.2340 -0.6406
vn 0.0112 0.3705 -0.9288
vn 0.7465 0.2649 -0.6103
vn 0.9996 0.0209 0.0205
vn 0.7314 -0.2340 0.6406
vn 0.6918 0.6413 -0.3319
vn -0.5456 0.6947 -0.4688
vn -0.6208 0.7494 0.2300
vn 0.5956 0.7201 0.3560
vn 0.6682 -0.5292 -0.5230
vn -0.5536 -0.5123 -0.6565
vn -0.5211 0.1432 -0.8414
vn 0.7232 0.1165 -0.6808
vn 0.5270 -0.4571 0.7165
vn -0.7184 -0.4103 0.5617
vn -0.6469 -0.7626 0.0059
vn 0.5773 -0.8059 0.1314
vn -0.7056 0.2124 0.6760
vn 0.5290 0.1995 0.8248
vn 0.6725 0.0187 0.7399
vn 0.5377 0.5809 0.6111
vn -0.6146 0.5742 0.5409
vn -0.7397 -0.0173 0.6727
vn -0.5540 0.5672 -0.6095
vn -0.6604 -0.0184 -0.7506
vn 0.5989 0.5872 -0.5446
vn 0.7505 0.0176 -0.6606
usemtl None.011
s 1
f 1/1/1 2/2/1 3/3/2 4/4/2
f 5/5/3 6/6/3 7/7/4 8/8/4
f 9/9/5 10/10/5 11/11/6 12/12/6
f 13/13/7 14/14/7 15/15/8 16/16/8
f 8/8/4 7/7/4 10/10/5 9/9/5
f 16/16/8 15/15/8 2/2/1 1/1/1
f 12/12/6 11/11/6 14/14/7 13/13/7
f 4/4/2 3/3/2 6/6/3 5/5/3
f 17/17/9 18/18/10 19/19/11 20/20/12
f 21/21/13 22/22/14 23/23/15 24/24/16
f 25/25/17 26/26/18 27/27/19 28/28/20
f 20/20/12 19/19/11 29/29/21 30/30/22
f 24/24/16 23/23/15 18/18/10 17/17/9
f 28/28/20 27/27/19 22/22/14 21/21/13
f 30/30/22 29/29/21 26/26/18 25/25/17
f 29/31/21 19/32/11 18/33/10 23/34/15 22/35/14 27/36/19 26/37/18
f 30/38/22 25/39/17 28/40/20 21/41/13 24/42/16 17/43/9 20/44/12
f 31/45/23 32/46/24 33/47/25 34/48/26
f 34/48/26 33/47/25 35/49/27 36/50/28
f 36/50/28 35/49/27 37/51/29 38/52/30
f 38/53/30 37/54/29 32/55/24 31/56/23
f 35/49/27 33/47/25 32/46/24 37/51/29
